<svg width="395" height="342" viewBox="0 0 395 342" fill="none" xmlns="http://www.w3.org/2000/svg">
<path d="M276.202 196.079C276.202 202.774 270.785 208.191 264.09 208.191C257.395 208.191 251.978 202.774 251.978 196.079C251.978 189.384 257.395 183.967 264.09 183.967C270.785 183.967 276.202 189.384 276.202 196.079Z" stroke="#151515" stroke-linecap="round" stroke-linejoin="round"/>
<path d="M149.574 196.079C149.574 202.774 144.157 208.191 137.462 208.191C130.766 208.191 125.349 202.774 125.349 196.079C125.349 189.384 130.766 183.967 137.462 183.967C144.157 183.967 149.574 189.384 149.574 196.079Z" stroke="#151515" stroke-linecap="round" stroke-linejoin="round"/>
<path d="M279.505 196.079C279.505 204.6 272.611 211.495 264.09 211.495C255.569 211.495 248.674 204.6 248.674 196.079C248.674 187.558 255.569 180.663 264.09 180.663C272.611 180.663 279.505 187.558 279.505 196.079Z" stroke="#151515" stroke-linecap="round" stroke-linejoin="round"/>
<path d="M152.877 196.079C152.877 204.6 145.983 211.495 137.462 211.495C128.94 211.495 122.046 204.6 122.046 196.079C122.046 187.558 128.94 180.663 137.462 180.663C145.983 180.663 152.877 187.558 152.877 196.079Z" stroke="#151515" stroke-linecap="round" stroke-linejoin="round"/>
<path d="M163.773 110.122C173.359 101.102 184.749 95.8775 196.975 95.8775C209.044 95.8775 220.298 100.969 229.806 109.776" stroke="#151515" stroke-linecap="round" stroke-linejoin="round"/>
<path d="M172.264 118.269C179.581 111.873 188.005 108.232 196.975 108.232C205.944 108.232 214.368 111.873 221.685 118.269" stroke="#151515" stroke-linecap="round" stroke-linejoin="round"/>
<path d="M213.408 126.375C208.457 121.68 202.878 119.042 196.975 119.042C190.989 119.042 185.336 121.754 180.334 126.574" stroke="#151515" stroke-linecap="round" stroke-linejoin="round"/>
<path d="M229.807 236.756C220.221 245.775 208.831 251 196.605 251C184.536 251 173.281 245.909 163.773 237.102" stroke="#151515" stroke-linecap="round" stroke-linejoin="round"/>
<path d="M221.315 228.608C213.998 235.005 205.574 238.646 196.605 238.646C187.635 238.646 179.211 235.005 171.894 228.608" stroke="#151515" stroke-linecap="round" stroke-linejoin="round"/>
<path d="M180.172 220.503C185.123 225.198 190.701 227.836 196.605 227.836C202.591 227.836 208.243 225.123 213.246 220.304" stroke="#151515" stroke-linecap="round" stroke-linejoin="round"/>
<path d="M120.394 191.124C120.394 194.978 120.033 197.647 119.293 198.832C118.511 200.084 115.623 199.755 113.237 199.382C109.383 198.832 100.417 197.18 97.2708 192.776C95.3045 190.023 97.2708 187.821 97.2708 186.169C97.2708 184.884 97.2708 183.416 96.7203 182.315C96.569 182.013 95.6191 181.214 96.7203 179.562C97.2708 178.461 99.8401 175.525 100.574 174.057C100.933 173.338 99.4731 170.753 99.4731 170.753C99.4731 170.753 98.9225 169.652 99.4731 168.551C100.574 167.45 101.514 166.966 101.125 165.798C100.574 164.147 101.125 162.495 104.428 162.495C118.192 163.046 128.102 159.637 133.608 157.54C145.169 153.136 163.888 147.63 178.203 147.63C194.72 147.63 203.202 146.575 229.955 160.843C240.966 168.001 243.169 165.248 255.281 166.349C275.101 168.151 282.809 170.753 292.719 174.607C298.224 176.81 298.775 177.911 297.123 179.562C296.325 180.361 297.123 183.967 297.674 185.068C298.775 188.371 296.935 192.97 296.573 193.877C295.472 196.63 297.123 196.63 298.224 196.63C299.876 197.18 299.876 199.382 297.123 200.484C292.046 202.515 284.845 202.686 284.46 202.686C279.505 203.236 281.708 199.933 281.157 195.528M154.529 194.978C154.529 199.382 153.978 201.585 156.731 201.585C162.237 201.585 223.899 202.686 237.663 202.686C243.169 202.686 245.371 203.236 245.921 199.933C246.472 196.63 246.35 194.978 246.472 193.877" stroke="#151515"/>
<path d="M293.82 179.012C292.168 175.158 280.056 172.405 277.854 173.506C278.404 175.158 282.031 177.749 286.112 180.663L286.112 180.663C290.517 183.809 294.37 181.765 293.82 179.012Z" stroke="#151515"/>
<path d="M103.878 168.001C105.126 165.169 114.889 164.697 116.54 166.9C116.54 168.551 112.686 169.652 110.484 170.753C106.08 172.956 101.675 171.855 103.878 168.001Z" stroke="#151515"/>
<path d="M188.113 151.484C206.612 151.924 227.202 161.944 235.461 168.551C235.461 168.551 190.315 166.349 188.113 166.349V151.484Z" stroke="#151515"/>
<path d="M183.708 151.484C158.383 152.585 139.297 156.989 139.664 160.293C140.214 165.248 155.63 164.697 183.708 166.349V151.484Z" stroke="#151515"/>
<path d="M226.398 166.142C225.702 166.393 226.059 167.241 226.204 167.45H226.204C225.334 167.45 224.412 167.45 222.485 167.083C220.558 166.716 218.572 164.886 221.616 164.259C225.963 163.631 227.267 165.828 226.398 166.142Z" stroke="#151515"/>
</svg>
