<svg width="395" height="342" viewBox="0 0 395 342" fill="none" xmlns="http://www.w3.org/2000/svg">
<path d="M257.346 113.46L237.356 101.992L197.441 124.994L157.526 101.992L137.602 113.46L197.441 147.997L257.346 113.46ZM117.677 171.066V194.069L137.602 205.537V228.54L157.526 240.074V194.069L117.677 171.066Z" stroke="#151515" stroke-linecap="round" stroke-linejoin="round"/>
<path d="M277.27 124.994L257.346 113.46L197.441 147.997L137.602 113.46L117.677 124.994L197.441 171L277.27 124.994ZM117.677 194.069V217.071L137.602 228.54V205.537L117.677 194.069Z" stroke="#151515" stroke-linecap="round" stroke-linejoin="round"/>
<path d="M237.356 101.992L217.431 90.4574L197.441 101.992L177.516 90.4574L157.526 101.992L197.441 124.994L237.356 101.992ZM117.677 147.997V171.066L157.526 194.069V240.074L177.516 251.608V182.534L117.677 147.997Z" stroke="#151515" stroke-linecap="round" stroke-linejoin="round"/>
<path d="M217.431 90.4574L197.441 78.9231L177.516 90.4574L197.441 101.992L217.431 90.4574ZM217.431 251.608L237.421 240.074L237.356 194.069L277.27 171.066V147.997L217.365 182.534L217.431 251.608Z" stroke="#151515" stroke-linecap="round" stroke-linejoin="round"/>
<path d="M197.44 171V263.077L217.43 251.608L217.364 182.534L277.269 147.997V124.994L197.44 171Z" stroke="#151515" stroke-linecap="round" stroke-linejoin="round"/>
<path d="M197.441 171L117.677 124.994V147.997L177.516 182.534V251.608L197.441 263.077V171ZM257.346 228.54L277.269 217.071V194.069L257.346 205.537V228.54Z" stroke="#151515" stroke-linecap="round" stroke-linejoin="round"/>
<path d="M237.421 240.074L257.346 228.54V205.537L277.27 194.069V171.066L237.356 194.069L237.421 240.074Z" stroke="#151515" stroke-linecap="round" stroke-linejoin="round"/>
</svg>
