<svg class="languagesDropdownIcon" xmlns="http://www.w3.org/2000/svg" xmlns:xlink="http://www.w3.org/1999/xlink" width="24" zoomAndPan="magnify" viewBox="0 0 375 374.999991" height="24" preserveAspectRatio="xMidYMid meet" version="1.0"><defs><clipPath id="d952ab5fc8"><path d="M 131.523438 107.035156 L 242.523438 107.035156 L 242.523438 218.035156 L 131.523438 218.035156 Z M 131.523438 107.035156 " clip-rule="nonzero"></path></clipPath><clipPath id="bcc24c915f"><path d="M 56.011719 56.335938 L 318.511719 56.335938 L 318.511719 318.835938 L 56.011719 318.835938 Z M 56.011719 56.335938 " clip-rule="nonzero"></path></clipPath></defs><g clip-path="url(#bcc24c915f)"><path id="earthIconPath" fill="#000000" d="M 187.191406 318.785156 L 186.917969 318.785156 L 186.707031 318.78125 L 186.476562 318.78125 L 186.289062 318.777344 L 186.035156 318.777344 L 185.847656 318.773438 L 185.636719 318.773438 L 185.425781 318.769531 L 185.21875 318.765625 L 184.796875 318.757812 L 184.585938 318.757812 L 184.378906 318.75 L 184.25 318.746094 C 184.125 318.746094 184 318.742188 183.875 318.738281 L 183.832031 318.738281 C 183.683594 318.734375 183.558594 318.730469 183.410156 318.726562 C 143.050781 317.539062 107.246094 298.097656 83.976562 268.386719 C 83.957031 268.363281 83.933594 268.34375 83.933594 268.324219 C 70.453125 251.117188 61.191406 230.464844 57.664062 207.921875 L 57.664062 207.914062 C 57.621094 207.578125 57.558594 207.242188 57.515625 206.90625 L 57.496094 206.800781 L 57.472656 206.6875 C 57.433594 206.421875 57.410156 206.15625 57.371094 205.886719 L 57.347656 205.769531 L 57.328125 205.597656 L 57.304688 205.464844 C 57.285156 205.265625 57.242188 205.066406 57.222656 204.867188 L 57.203125 204.738281 L 57.179688 204.5625 L 57.160156 204.390625 L 57.136719 204.238281 C 57.117188 204.105469 57.117188 203.972656 57.097656 203.839844 L 57.074219 203.703125 L 57.054688 203.527344 L 57.03125 203.355469 L 57.011719 203.207031 C 56.992188 203.074219 56.992188 202.941406 56.96875 202.8125 L 56.949219 202.664062 L 56.929688 202.488281 L 56.90625 202.316406 L 56.886719 202.171875 C 56.886719 202.039062 56.867188 201.910156 56.867188 201.78125 L 56.824219 201.566406 L 56.800781 201.359375 L 56.78125 201.101562 L 56.761719 200.941406 L 56.738281 200.738281 L 56.699219 200.324219 L 56.675781 200.058594 L 56.65625 199.898438 L 56.65625 199.6875 L 56.632812 199.496094 L 56.59375 199.082031 L 56.570312 198.835938 L 56.550781 198.664062 L 56.527344 198.457031 L 56.527344 198.25 L 56.507812 198.042969 L 56.488281 197.789062 L 56.464844 197.621094 L 56.445312 197.417969 L 56.445312 197.207031 L 56.425781 197 L 56.402344 196.738281 L 56.402344 196.570312 L 56.382812 196.375 L 56.359375 196.167969 L 56.359375 195.957031 L 56.339844 195.75 L 56.320312 195.507812 L 56.320312 195.3125 L 56.296875 195.121094 L 56.296875 194.910156 L 56.277344 194.703125 L 56.277344 194.449219 L 56.257812 194.277344 L 56.257812 194.074219 L 56.234375 193.863281 L 56.234375 193.65625 L 56.214844 193.390625 L 56.214844 193.222656 L 56.195312 193.023438 L 56.195312 192.601562 L 56.171875 192.394531 L 56.171875 191.945312 L 56.152344 191.761719 L 56.152344 191.339844 L 56.128906 191.09375 L 56.128906 190.496094 L 56.109375 190.285156 L 56.109375 189.226562 L 56.089844 188.960938 L 56.089844 187.730469 C 56.089844 187.667969 56.089844 187.601562 56.089844 187.535156 L 56.089844 186.050781 L 56.109375 185.839844 L 56.109375 184.78125 L 56.128906 184.570312 L 56.128906 183.9375 L 56.152344 183.726562 L 56.152344 183.261719 L 56.171875 183.089844 L 56.171875 182.675781 L 56.195312 182.464844 L 56.195312 182.035156 L 56.214844 181.832031 L 56.214844 181.621094 L 56.234375 181.410156 L 56.234375 181.203125 L 56.257812 180.980469 L 56.257812 180.757812 L 56.277344 180.574219 L 56.277344 180.363281 L 56.296875 180.15625 L 56.296875 179.90625 L 56.320312 179.730469 L 56.339844 179.527344 L 56.339844 179.316406 L 56.359375 179.109375 L 56.359375 178.851562 L 56.382812 178.683594 L 56.402344 178.484375 L 56.402344 178.273438 L 56.425781 178.066406 L 56.445312 177.859375 L 56.445312 177.636719 L 56.464844 177.441406 L 56.488281 177.234375 L 56.507812 177.023438 L 56.527344 176.816406 L 56.527344 176.570312 L 56.550781 176.398438 L 56.570312 176.195312 L 56.59375 175.984375 L 56.613281 175.777344 L 56.632812 175.523438 L 56.65625 175.355469 L 56.675781 175.15625 L 56.675781 174.949219 L 56.699219 174.742188 L 56.738281 174.476562 L 56.738281 174.316406 L 56.761719 174.09375 L 56.78125 173.914062 L 56.800781 173.710938 L 56.824219 173.5 L 56.867188 173.257812 L 56.886719 173.089844 L 56.90625 172.882812 L 56.929688 172.679688 L 56.949219 172.472656 L 56.96875 172.21875 L 56.992188 172.054688 L 57.03125 171.648438 L 57.074219 171.441406 L 57.097656 171.179688 L 57.117188 171.023438 L 57.136719 170.820312 L 57.179688 170.621094 L 57.203125 170.417969 L 57.242188 170.144531 L 57.242188 169.996094 C 57.265625 169.867188 57.285156 169.734375 57.304688 169.605469 L 57.328125 169.394531 L 57.371094 169.113281 L 57.390625 168.972656 C 57.410156 168.839844 57.433594 168.707031 57.453125 168.578125 L 57.472656 168.347656 L 57.515625 168.082031 L 57.539062 167.910156 L 57.578125 167.761719 C 57.578125 167.628906 57.621094 167.496094 57.640625 167.359375 L 57.664062 167.222656 L 57.683594 167.054688 L 57.707031 166.882812 L 57.726562 166.742188 C 57.746094 166.605469 57.769531 166.472656 57.789062 166.339844 L 57.808594 166.199219 L 57.851562 166.027344 L 57.875 165.855469 L 57.894531 165.726562 C 57.9375 165.527344 57.957031 165.324219 58 165.125 L 58.019531 165.003906 L 58.042969 164.835938 L 58.0625 164.71875 C 58.105469 164.449219 58.167969 164.179688 58.210938 163.910156 C 62.09375 142.601562 71.125 123.082031 83.957031 106.695312 C 83.976562 106.671875 83.996094 106.652344 84.019531 106.632812 C 108.042969 75.984375 145.402344 56.285156 187.339844 56.285156 C 229.273438 56.285156 266.632812 75.984375 290.65625 106.632812 C 290.679688 106.652344 290.699219 106.671875 290.722656 106.695312 C 303.550781 123.082031 312.582031 142.601562 316.46875 163.910156 C 316.507812 164.179688 316.574219 164.445312 316.613281 164.71875 L 316.636719 164.835938 L 316.65625 165.003906 L 316.675781 165.125 C 316.71875 165.324219 316.742188 165.527344 316.78125 165.726562 L 316.804688 165.855469 L 316.824219 166.027344 L 316.867188 166.199219 L 316.886719 166.339844 C 316.90625 166.472656 316.929688 166.605469 316.949219 166.742188 L 316.972656 166.882812 L 316.992188 167.054688 L 317.035156 167.222656 L 317.054688 167.359375 C 317.078125 167.492188 317.078125 167.625 317.097656 167.761719 L 317.140625 167.988281 L 317.179688 168.253906 L 317.203125 168.425781 L 317.222656 168.578125 C 317.246094 168.710938 317.265625 168.839844 317.285156 168.972656 L 317.308594 169.113281 L 317.347656 169.457031 L 317.371094 169.605469 C 317.390625 169.734375 317.414062 169.867188 317.433594 169.996094 L 317.453125 170.210938 L 317.496094 170.488281 L 317.515625 170.660156 L 317.539062 170.828125 L 317.558594 171.03125 L 317.582031 171.238281 L 317.601562 171.441406 L 317.644531 171.699219 L 317.664062 171.859375 L 317.683594 172.085938 L 317.707031 172.265625 L 317.726562 172.472656 L 317.769531 172.738281 L 317.789062 172.894531 L 317.8125 173.097656 L 317.832031 173.296875 L 317.851562 173.5 L 317.875 173.710938 L 317.894531 173.953125 L 317.917969 174.125 L 317.9375 174.328125 L 317.957031 174.535156 L 317.980469 174.742188 L 318 175 L 318.019531 175.164062 L 318.019531 175.363281 L 318.042969 175.570312 L 318.0625 175.777344 L 318.085938 175.984375 L 318.105469 176.207031 L 318.125 176.402344 L 318.148438 176.609375 L 318.148438 176.816406 L 318.167969 177.023438 L 318.1875 177.269531 L 318.210938 177.445312 L 318.230469 177.648438 L 318.230469 177.859375 L 318.253906 178.066406 L 318.273438 178.324219 L 318.273438 178.492188 L 318.292969 178.691406 L 318.316406 178.898438 L 318.316406 179.109375 L 318.335938 179.316406 L 318.355469 179.539062 L 318.355469 179.734375 L 318.378906 179.945312 L 318.378906 180.15625 L 318.398438 180.363281 L 318.398438 180.613281 L 318.421875 180.785156 L 318.421875 180.992188 L 318.441406 181.203125 L 318.441406 181.410156 L 318.460938 181.671875 L 318.460938 181.839844 L 318.484375 182.042969 L 318.484375 182.464844 L 318.503906 182.675781 L 318.503906 182.898438 L 318.523438 183.09375 L 318.523438 183.726562 L 318.546875 183.972656 L 318.546875 184.570312 L 318.566406 184.78125 L 318.566406 185.625 L 318.589844 185.839844 L 318.589844 187.335938 C 318.589844 187.398438 318.589844 187.464844 318.589844 187.535156 L 318.589844 189.226562 L 318.566406 189.492188 L 318.566406 190.285156 L 318.546875 190.496094 L 318.546875 191.128906 L 318.523438 191.339844 L 318.523438 191.976562 L 318.503906 192.183594 L 318.503906 192.394531 L 318.484375 192.601562 L 318.484375 193.03125 L 318.460938 193.234375 L 318.460938 193.445312 L 318.441406 193.65625 L 318.441406 193.863281 L 318.421875 194.085938 L 318.421875 194.28125 L 318.398438 194.492188 L 318.398438 194.703125 L 318.378906 194.910156 L 318.378906 195.15625 L 318.355469 195.335938 L 318.335938 195.539062 L 318.335938 195.75 L 318.316406 195.957031 L 318.316406 196.210938 L 318.292969 196.378906 L 318.273438 196.585938 L 318.273438 196.792969 L 318.253906 197 L 318.230469 197.261719 L 318.230469 197.425781 L 318.210938 197.625 L 318.1875 197.832031 L 318.167969 198.042969 L 318.148438 198.25 L 318.148438 198.46875 L 318.125 198.675781 L 318.105469 198.875 L 318.085938 199.082031 L 318.0625 199.289062 L 318.042969 199.535156 L 318.019531 199.703125 L 318.019531 199.910156 L 317.980469 200.324219 L 317.9375 200.582031 L 317.9375 200.742188 L 317.917969 200.972656 L 317.894531 201.152344 L 317.875 201.359375 L 317.832031 201.621094 L 317.8125 201.78125 C 317.8125 201.90625 317.789062 202.039062 317.789062 202.171875 L 317.769531 202.316406 L 317.75 202.488281 L 317.726562 202.664062 L 317.707031 202.8125 C 317.683594 202.941406 317.683594 203.074219 317.664062 203.207031 L 317.644531 203.355469 L 317.621094 203.527344 L 317.601562 203.703125 L 317.582031 203.839844 C 317.558594 203.972656 317.558594 204.105469 317.539062 204.238281 L 317.496094 204.46875 L 317.476562 204.738281 L 317.453125 204.867188 C 317.433594 205.066406 317.390625 205.265625 317.371094 205.464844 L 317.347656 205.597656 L 317.328125 205.769531 L 317.308594 205.886719 C 317.285156 206.152344 317.246094 206.421875 317.203125 206.6875 L 317.179688 206.800781 L 317.160156 206.90625 C 317.117188 207.242188 317.054688 207.578125 317.011719 207.914062 L 317.011719 207.921875 C 313.484375 230.464844 304.222656 251.117188 290.761719 268.324219 C 290.742188 268.34375 290.722656 268.363281 290.699219 268.386719 C 267.410156 298.101562 231.605469 317.539062 191.265625 318.726562 C 191.117188 318.730469 190.992188 318.734375 190.84375 318.738281 L 190.804688 318.738281 C 190.675781 318.742188 190.550781 318.746094 190.445312 318.746094 L 190.257812 318.75 L 190.089844 318.757812 L 189.878906 318.757812 L 189.667969 318.761719 L 189.460938 318.765625 L 189.226562 318.769531 L 189.039062 318.773438 L 188.808594 318.773438 L 188.621094 318.777344 L 188.386719 318.777344 L 188.179688 318.78125 L 187.949219 318.78125 L 187.738281 318.785156 Z M 184.417969 258.832031 C 165.644531 258.929688 147.898438 260.015625 132.046875 261.882812 C 136.246094 270.992188 141.203125 279.082031 146.765625 285.886719 C 157.433594 298.929688 170.347656 307.175781 184.417969 308.179688 Z M 194.917969 258.875 L 194.917969 307.574219 C 207.183594 305.273438 218.4375 297.472656 227.910156 285.886719 C 233.476562 279.082031 238.429688 270.992188 242.632812 261.882812 C 228.097656 260.171875 211.972656 259.117188 194.917969 258.875 Z M 253.445312 263.328125 C 248.59375 274.515625 242.714844 284.382812 236.039062 292.535156 C 233.433594 295.722656 230.703125 298.652344 227.867188 301.304688 C 247.0625 294.453125 264.03125 282.875 277.367188 267.980469 C 270.246094 266.203125 262.222656 264.636719 253.445312 263.328125 Z M 121.230469 263.328125 C 112.453125 264.636719 104.429688 266.203125 97.3125 267.980469 C 110.644531 282.878906 127.613281 294.453125 146.808594 301.304688 C 143.972656 298.652344 141.242188 295.722656 138.640625 292.535156 C 131.960938 284.382812 126.082031 274.515625 121.230469 263.328125 Z M 106.550781 192.785156 L 66.695312 192.785156 L 66.714844 192.976562 L 66.714844 193.183594 L 66.734375 193.386719 L 66.734375 193.570312 L 66.757812 193.75 L 66.757812 193.945312 L 66.777344 194.15625 L 66.777344 194.339844 L 66.796875 194.519531 L 66.796875 194.707031 L 66.820312 194.921875 L 66.820312 195.109375 L 66.839844 195.289062 L 66.839844 195.476562 L 66.859375 195.6875 L 66.859375 195.875 L 66.882812 196.054688 L 66.902344 196.246094 L 66.902344 196.449219 L 66.925781 196.640625 L 66.945312 196.820312 L 66.945312 197.011719 L 66.964844 197.210938 L 66.988281 197.402344 L 67.007812 197.585938 L 67.007812 197.773438 L 67.027344 197.96875 L 67.050781 198.164062 C 67.070312 198.417969 67.09375 198.667969 67.113281 198.914062 L 67.113281 198.925781 C 68.75 216.269531 74.042969 232.550781 82.234375 246.976562 L 82.339844 247.148438 L 82.421875 247.300781 L 82.484375 247.441406 L 82.570312 247.578125 L 82.652344 247.707031 C 84.898438 251.628906 87.378906 255.410156 90.046875 259.039062 C 97.941406 256.847656 107.117188 254.917969 117.304688 253.320312 C 110.941406 235.429688 107.078125 214.816406 106.550781 192.785156 Z M 307.878906 194.519531 L 307.898438 194.296875 L 307.921875 194.113281 L 307.921875 193.933594 L 307.941406 193.722656 L 307.941406 193.335938 L 307.960938 193.160156 L 307.960938 192.949219 L 307.984375 192.785156 L 268.125 192.785156 C 267.601562 214.816406 263.734375 235.433594 257.375 253.320312 C 267.558594 254.917969 276.734375 256.847656 284.632812 259.039062 C 287.296875 255.410156 289.777344 251.628906 292.023438 247.707031 L 292.105469 247.578125 L 292.191406 247.441406 L 292.253906 247.300781 L 292.359375 247.128906 L 292.445312 246.976562 C 300.632812 232.546875 305.925781 216.269531 307.5625 198.925781 L 307.5625 198.914062 C 307.585938 198.664062 307.605469 198.414062 307.625 198.164062 L 307.648438 197.964844 L 307.667969 197.773438 L 307.667969 197.578125 L 307.6875 197.378906 L 307.710938 197.199219 L 307.730469 197.011719 L 307.730469 196.808594 L 307.753906 196.613281 L 307.773438 196.425781 L 307.773438 196.246094 L 307.792969 196.039062 L 307.816406 195.839844 L 307.816406 195.65625 L 307.835938 195.476562 L 307.835938 195.269531 L 307.855469 195.066406 L 307.855469 194.886719 L 307.878906 194.707031 Z M 184.417969 248.332031 L 184.417969 192.785156 L 117.050781 192.785156 C 117.597656 214.382812 121.480469 234.546875 127.886719 251.828125 C 144.855469 249.695312 164.050781 248.441406 184.417969 248.332031 Z M 257.625 192.785156 L 194.917969 192.785156 L 194.917969 248.375 C 213.566406 248.636719 231.125 249.859375 246.789062 251.828125 C 253.195312 234.546875 257.078125 214.382812 257.625 192.785156 Z M 246.769531 123.179688 C 231.125 125.148438 213.546875 126.371094 194.917969 126.632812 L 194.917969 182.285156 L 257.625 182.285156 C 257.078125 160.660156 253.195312 140.476562 246.769531 123.179688 Z M 292.589844 128.351562 C 290.175781 124.054688 287.488281 119.925781 284.589844 115.976562 C 276.695312 118.167969 267.539062 120.097656 257.351562 121.691406 C 263.714844 139.589844 267.601562 160.226562 268.125 182.285156 L 307.984375 182.285156 L 307.960938 182.089844 L 307.960938 181.886719 L 307.941406 181.679688 L 307.941406 181.492188 L 307.921875 181.316406 L 307.921875 181.128906 L 307.898438 180.910156 L 307.898438 180.726562 L 307.878906 180.542969 L 307.878906 180.359375 L 307.855469 180.144531 L 307.855469 179.953125 L 307.835938 179.777344 L 307.835938 179.589844 L 307.816406 179.378906 L 307.816406 179.1875 L 307.792969 179.007812 L 307.773438 178.824219 L 307.773438 178.617188 L 307.753906 178.421875 L 307.730469 178.242188 L 307.730469 178.054688 L 307.710938 177.859375 L 307.6875 177.660156 L 307.667969 177.480469 L 307.667969 177.292969 C 307.648438 177.230469 307.648438 177.164062 307.648438 177.101562 L 307.625 176.898438 L 307.605469 176.714844 L 307.585938 176.527344 C 307.585938 176.464844 307.585938 176.402344 307.585938 176.339844 L 307.5625 176.140625 L 307.542969 175.953125 L 307.519531 175.765625 C 307.519531 175.703125 307.5 175.640625 307.5 175.574219 L 307.480469 175.386719 C 305.820312 158.773438 300.78125 143.144531 293.074219 129.203125 L 292.96875 129.027344 L 292.882812 128.875 L 292.800781 128.734375 L 292.738281 128.59375 L 292.652344 128.460938 Z M 127.90625 123.179688 C 121.480469 140.476562 117.597656 160.660156 117.050781 182.285156 L 184.417969 182.285156 L 184.417969 126.675781 C 164.050781 126.566406 144.855469 125.316406 127.90625 123.179688 Z M 117.324219 121.691406 C 107.140625 120.097656 97.984375 118.167969 90.085938 115.976562 C 87.1875 119.925781 84.5 124.054688 82.085938 128.351562 L 82.003906 128.511719 L 81.898438 128.667969 L 81.875 128.734375 L 81.792969 128.886719 L 81.6875 129.050781 L 81.601562 129.203125 C 73.894531 143.148438 68.855469 158.773438 67.199219 175.386719 L 67.175781 175.574219 C 67.175781 175.640625 67.15625 175.703125 67.15625 175.765625 L 67.132812 175.957031 L 67.113281 176.152344 L 67.09375 176.339844 C 67.09375 176.402344 67.09375 176.464844 67.09375 176.527344 L 67.070312 176.726562 L 67.050781 176.917969 L 67.027344 177.101562 C 67.027344 177.164062 67.027344 177.230469 67.007812 177.292969 L 67.007812 177.492188 L 66.988281 177.6875 L 66.964844 177.871094 L 66.945312 178.054688 L 66.945312 178.261719 L 66.925781 178.457031 L 66.902344 178.636719 L 66.902344 178.824219 L 66.882812 179.03125 L 66.859375 179.226562 L 66.859375 179.410156 L 66.839844 179.589844 L 66.839844 179.804688 L 66.820312 180 L 66.820312 180.179688 L 66.796875 180.359375 L 66.777344 180.574219 L 66.777344 180.769531 L 66.757812 180.953125 L 66.757812 181.128906 L 66.734375 181.347656 L 66.734375 181.726562 L 66.714844 181.90625 L 66.714844 182.121094 L 66.695312 182.285156 L 106.550781 182.285156 C 107.078125 160.230469 110.960938 139.59375 117.324219 121.691406 Z M 184.417969 66.886719 C 170.347656 67.890625 157.433594 76.136719 146.765625 89.183594 C 141.203125 95.96875 136.265625 104.039062 132.085938 113.125 C 147.898438 114.992188 165.644531 116.074219 184.417969 116.175781 Z M 194.917969 67.492188 L 194.917969 116.132812 C 211.972656 115.890625 228.078125 114.835938 242.589844 113.125 C 238.410156 104.039062 233.476562 95.96875 227.910156 89.183594 C 218.4375 77.59375 207.183594 69.792969 194.917969 67.492188 Z M 146.808594 73.765625 C 127.636719 80.605469 110.6875 92.164062 97.351562 107.039062 C 104.472656 108.816406 112.496094 110.378906 121.25 111.6875 C 126.101562 100.519531 131.980469 90.671875 138.640625 82.535156 C 141.242188 79.34375 143.972656 76.417969 146.808594 73.765625 Z M 227.867188 73.765625 C 230.703125 76.417969 233.433594 79.34375 236.039062 82.535156 C 242.695312 90.671875 248.574219 100.519531 253.425781 111.6875 C 262.183594 110.378906 270.203125 108.816406 277.324219 107.039062 C 264.007812 92.164062 247.042969 80.605469 227.867188 73.765625 Z M 227.867188 73.765625 " fill-opacity="1" fill-rule="evenodd"></path></g></svg>