<svg width="395" height="342" viewBox="0 0 395 342" fill="none" xmlns="http://www.w3.org/2000/svg">
<path d="M197.503 175.614V166.393M112.329 85.8783L130.876 104.433M130.876 95.2044V104.433H121.655M282.678 85.8783L264.123 104.433M264.123 95.2044V104.433H273.352M282.678 256.129L264.123 237.575M112.329 256.129L130.876 237.575M130.876 246.803V237.575H121.655M197.503 249.335C240.765 249.335 275.835 214.265 275.835 171.003C275.835 127.743 240.765 92.6723 197.503 92.6723C154.242 92.6723 119.171 127.743 119.171 171.003C119.171 214.265 154.242 249.335 197.503 249.335Z" stroke="#151515" stroke-linecap="round" stroke-linejoin="round"/>
<path d="M248.59 222.097L211.119 184.619ZM245.235 225.452L251.952 218.735ZM146.41 119.91L183.888 157.388ZM149.765 116.555L143.055 123.265ZM146.41 222.097L183.888 184.619ZM143.055 218.735L149.765 225.452ZM248.59 119.91L211.119 157.388ZM251.952 123.265L245.235 116.555ZM112.148 119.896H105.333ZM112.148 126.286H105.333ZM112.148 132.675H105.333ZM112.148 139.064H105.333ZM112.148 145.453H105.333ZM112.148 151.836H105.333ZM112.148 158.225H105.333ZM112.148 164.614H105.333ZM112.148 171.004H105.333ZM112.148 177.393H105.333ZM112.148 183.782H105.333ZM112.148 190.165H105.333ZM112.148 196.554H105.333ZM112.148 202.943H105.333ZM112.148 209.332H105.333ZM112.148 215.721H105.333ZM112.148 222.104H105.333ZM289.667 119.896H282.859ZM289.667 126.286H282.859ZM289.667 132.675H282.859ZM289.667 139.064H282.859ZM289.667 145.453H282.859ZM289.667 151.836H282.859ZM289.667 158.225H282.859ZM289.667 164.614H282.859ZM289.667 171.004H282.859ZM289.667 177.393H282.859ZM289.667 183.782H282.859ZM289.667 190.165H282.859ZM289.667 196.554H282.859ZM289.667 202.943H282.859ZM289.667 209.332H282.859ZM289.667 215.721H282.859ZM289.667 222.104H282.859ZM248.605 85.6479V78.8333ZM242.215 85.6479V78.8333ZM235.832 85.6479V78.8333ZM229.442 85.6479V78.8333ZM223.054 85.6479V78.8333ZM216.665 85.6479V78.8333ZM210.275 85.6479V78.8333ZM203.886 85.6479V78.8333ZM197.503 85.6479V78.8333ZM191.114 85.6479V78.8333ZM184.726 85.6479V78.8333ZM178.336 85.6479V78.8333ZM171.946 85.6479V78.8333ZM165.564 85.6479V78.8333ZM159.175 85.6479V78.8333ZM152.786 85.6479V78.8333ZM146.396 85.6479V78.8333ZM248.605 263.174V256.359ZM242.215 263.174V256.359ZM235.832 263.174V256.359ZM229.442 263.174V256.359ZM223.054 263.174V256.359ZM216.665 263.174V256.359ZM210.275 263.174V256.359ZM203.886 263.174V256.359ZM197.503 263.174V256.359ZM191.114 263.174V256.359ZM184.726 263.174V256.359ZM178.336 263.174V256.359ZM171.946 263.174V256.359ZM165.564 263.174V256.359ZM159.175 263.174V256.359ZM152.786 263.174V256.359ZM146.396 263.174V256.359ZM275.835 171.129H119.166ZM200.908 100.032H194.092ZM200.908 107.124H194.092ZM200.908 114.225H194.092ZM200.908 121.319H194.092ZM200.908 128.42H194.092ZM200.908 135.514H194.092ZM200.908 142.614H194.092ZM200.908 149.708H194.092ZM200.908 156.809H194.092ZM200.908 163.903H194.092ZM200.908 178.098H194.092ZM200.908 185.198H194.092ZM200.908 192.292H194.092ZM200.908 199.392H194.092ZM200.908 206.493H194.092ZM200.908 213.587H194.092ZM200.908 220.688H194.092ZM200.908 227.781H194.092ZM200.908 234.882H194.092ZM200.908 241.977H194.092ZM197.503 249.335V92.6723ZM268.476 174.408V167.592ZM261.376 174.408V167.592ZM254.282 174.408V167.592ZM247.181 174.408V167.592ZM240.087 174.408V167.592ZM232.986 174.408V167.592ZM225.892 174.408V167.592ZM218.792 174.408V167.592ZM211.699 174.408V167.592ZM204.597 174.408V167.592ZM190.403 174.408V167.592ZM183.309 174.408V167.592ZM176.209 174.408V167.592ZM169.114 174.408V167.592ZM162.013 174.408V167.592ZM154.92 174.408V167.592ZM147.82 174.408V167.592ZM140.718 174.408V167.592ZM133.624 174.408V167.592ZM126.524 174.408V167.592Z" fill="#151515"/>
<path d="M248.59 222.097L211.119 184.619M245.235 225.452L251.952 218.735M146.41 119.91L183.888 157.388M149.765 116.555L143.055 123.265M146.41 222.097L183.888 184.619M143.055 218.735L149.765 225.452M248.59 119.91L211.119 157.388M251.952 123.265L245.235 116.555M112.148 119.896H105.333M112.148 126.286H105.333M112.148 132.675H105.333M112.148 139.064H105.333M112.148 145.453H105.333M112.148 151.836H105.333M112.148 158.225H105.333M112.148 164.614H105.333M112.148 171.004H105.333M112.148 177.393H105.333M112.148 183.782H105.333M112.148 190.165H105.333M112.148 196.554H105.333M112.148 202.943H105.333M112.148 209.332H105.333M112.148 215.721H105.333M112.148 222.104H105.333M289.667 119.896H282.859M289.667 126.286H282.859M289.667 132.675H282.859M289.667 139.064H282.859M289.667 145.453H282.859M289.667 151.836H282.859M289.667 158.225H282.859M289.667 164.614H282.859M289.667 171.004H282.859M289.667 177.393H282.859M289.667 183.782H282.859M289.667 190.165H282.859M289.667 196.554H282.859M289.667 202.943H282.859M289.667 209.332H282.859M289.667 215.721H282.859M289.667 222.104H282.859M248.605 85.6479V78.8333M242.215 85.6479V78.8333M235.832 85.6479V78.8333M229.442 85.6479V78.8333M223.054 85.6479V78.8333M216.665 85.6479V78.8333M210.275 85.6479V78.8333M203.886 85.6479V78.8333M197.503 85.6479V78.8333M191.114 85.6479V78.8333M184.726 85.6479V78.8333M178.336 85.6479V78.8333M171.946 85.6479V78.8333M165.564 85.6479V78.8333M159.175 85.6479V78.8333M152.786 85.6479V78.8333M146.396 85.6479V78.8333M248.605 263.174V256.359M242.215 263.174V256.359M235.832 263.174V256.359M229.442 263.174V256.359M223.054 263.174V256.359M216.665 263.174V256.359M210.275 263.174V256.359M203.886 263.174V256.359M197.503 263.174V256.359M191.114 263.174V256.359M184.726 263.174V256.359M178.336 263.174V256.359M171.946 263.174V256.359M165.564 263.174V256.359M159.175 263.174V256.359M152.786 263.174V256.359M146.396 263.174V256.359M275.835 171.129H119.166M200.908 100.032H194.092M200.908 107.124H194.092M200.908 114.225H194.092M200.908 121.319H194.092M200.908 128.42H194.092M200.908 135.514H194.092M200.908 142.614H194.092M200.908 149.708H194.092M200.908 156.809H194.092M200.908 163.903H194.092M200.908 178.098H194.092M200.908 185.198H194.092M200.908 192.292H194.092M200.908 199.392H194.092M200.908 206.493H194.092M200.908 213.587H194.092M200.908 220.688H194.092M200.908 227.781H194.092M200.908 234.882H194.092M200.908 241.977H194.092M197.503 249.335V92.6723M268.476 174.408V167.592M261.376 174.408V167.592M254.282 174.408V167.592M247.181 174.408V167.592M240.087 174.408V167.592M232.986 174.408V167.592M225.892 174.408V167.592M218.792 174.408V167.592M211.699 174.408V167.592M204.597 174.408V167.592M190.403 174.408V167.592M183.309 174.408V167.592M176.209 174.408V167.592M169.114 174.408V167.592M162.013 174.408V167.592M154.92 174.408V167.592M147.82 174.408V167.592M140.718 174.408V167.592M133.624 174.408V167.592M126.524 174.408V167.592" stroke="#151515" stroke-width="0.822917" stroke-miterlimit="10"/>
<path d="M248.59 222.097L211.119 184.619ZM245.235 225.452L251.952 218.735ZM146.41 119.91L183.888 157.388ZM149.765 116.555L143.055 123.265ZM146.41 222.097L183.888 184.619ZM143.055 218.735L149.765 225.452ZM248.59 119.91L211.119 157.388ZM251.952 123.265L245.235 116.555ZM112.148 119.896H105.333ZM112.148 126.286H105.333ZM112.148 132.675H105.333ZM112.148 139.064H105.333ZM112.148 145.453H105.333ZM112.148 151.836H105.333ZM112.148 158.225H105.333ZM112.148 164.614H105.333ZM112.148 171.004H105.333ZM112.148 177.393H105.333ZM112.148 183.782H105.333ZM112.148 190.165H105.333ZM112.148 196.554H105.333ZM112.148 202.943H105.333ZM112.148 209.332H105.333ZM112.148 215.721H105.333ZM112.148 222.104H105.333ZM289.667 119.896H282.859ZM289.667 126.286H282.859ZM289.667 132.675H282.859ZM289.667 139.064H282.859ZM289.667 145.453H282.859ZM289.667 151.836H282.859ZM289.667 158.225H282.859ZM289.667 164.614H282.859ZM289.667 171.004H282.859ZM289.667 177.393H282.859ZM289.667 183.782H282.859ZM289.667 190.165H282.859ZM289.667 196.554H282.859ZM289.667 202.943H282.859ZM289.667 209.332H282.859ZM289.667 215.721H282.859ZM289.667 222.104H282.859ZM248.605 85.6479V78.8333ZM242.215 85.6479V78.8333ZM235.832 85.6479V78.8333ZM229.442 85.6479V78.8333ZM223.054 85.6479V78.8333ZM216.665 85.6479V78.8333ZM210.275 85.6479V78.8333ZM203.886 85.6479V78.8333ZM197.503 85.6479V78.8333ZM191.114 85.6479V78.8333ZM184.726 85.6479V78.8333ZM178.336 85.6479V78.8333ZM171.946 85.6479V78.8333ZM165.564 85.6479V78.8333ZM159.175 85.6479V78.8333ZM152.786 85.6479V78.8333ZM146.396 85.6479V78.8333ZM248.605 263.174V256.359ZM242.215 263.174V256.359ZM235.832 263.174V256.359ZM229.442 263.174V256.359ZM223.054 263.174V256.359ZM216.665 263.174V256.359ZM210.275 263.174V256.359ZM203.886 263.174V256.359ZM197.503 263.174V256.359ZM191.114 263.174V256.359ZM184.726 263.174V256.359ZM178.336 263.174V256.359ZM171.946 263.174V256.359ZM165.564 263.174V256.359ZM159.175 263.174V256.359ZM152.786 263.174V256.359ZM146.396 263.174V256.359ZM275.835 171.129H119.166ZM200.908 100.032H194.092ZM200.908 107.124H194.092ZM200.908 114.225H194.092ZM200.908 121.319H194.092ZM200.908 128.42H194.092ZM200.908 135.514H194.092ZM200.908 142.614H194.092ZM200.908 149.708H194.092ZM200.908 156.809H194.092ZM200.908 163.903H194.092ZM200.908 178.098H194.092ZM200.908 185.198H194.092ZM200.908 192.292H194.092ZM200.908 199.392H194.092ZM200.908 206.493H194.092ZM200.908 213.587H194.092ZM200.908 220.688H194.092ZM200.908 227.781H194.092ZM200.908 234.882H194.092ZM200.908 241.977H194.092ZM197.503 249.335V92.6723ZM268.476 174.408V167.592ZM261.376 174.408V167.592ZM254.282 174.408V167.592ZM247.181 174.408V167.592ZM240.087 174.408V167.592ZM232.986 174.408V167.592ZM225.892 174.408V167.592ZM218.792 174.408V167.592ZM211.699 174.408V167.592ZM204.597 174.408V167.592ZM190.403 174.408V167.592ZM183.309 174.408V167.592ZM176.209 174.408V167.592ZM169.114 174.408V167.592ZM162.013 174.408V167.592ZM154.92 174.408V167.592ZM147.82 174.408V167.592ZM140.718 174.408V167.592ZM133.624 174.408V167.592ZM126.524 174.408V167.592Z" fill="#151515"/>
<path d="M248.59 222.097L211.119 184.619M245.235 225.452L251.952 218.735M146.41 119.91L183.888 157.388M149.765 116.555L143.055 123.265M146.41 222.097L183.888 184.619M143.055 218.735L149.765 225.452M248.59 119.91L211.119 157.388M251.952 123.265L245.235 116.555M112.148 119.896H105.333M112.148 126.286H105.333M112.148 132.675H105.333M112.148 139.064H105.333M112.148 145.453H105.333M112.148 151.836H105.333M112.148 158.225H105.333M112.148 164.614H105.333M112.148 171.004H105.333M112.148 177.393H105.333M112.148 183.782H105.333M112.148 190.165H105.333M112.148 196.554H105.333M112.148 202.943H105.333M112.148 209.332H105.333M112.148 215.721H105.333M112.148 222.104H105.333M289.667 119.896H282.859M289.667 126.286H282.859M289.667 132.675H282.859M289.667 139.064H282.859M289.667 145.453H282.859M289.667 151.836H282.859M289.667 158.225H282.859M289.667 164.614H282.859M289.667 171.004H282.859M289.667 177.393H282.859M289.667 183.782H282.859M289.667 190.165H282.859M289.667 196.554H282.859M289.667 202.943H282.859M289.667 209.332H282.859M289.667 215.721H282.859M289.667 222.104H282.859M248.605 85.6479V78.8333M242.215 85.6479V78.8333M235.832 85.6479V78.8333M229.442 85.6479V78.8333M223.054 85.6479V78.8333M216.665 85.6479V78.8333M210.275 85.6479V78.8333M203.886 85.6479V78.8333M197.503 85.6479V78.8333M191.114 85.6479V78.8333M184.726 85.6479V78.8333M178.336 85.6479V78.8333M171.946 85.6479V78.8333M165.564 85.6479V78.8333M159.175 85.6479V78.8333M152.786 85.6479V78.8333M146.396 85.6479V78.8333M248.605 263.174V256.359M242.215 263.174V256.359M235.832 263.174V256.359M229.442 263.174V256.359M223.054 263.174V256.359M216.665 263.174V256.359M210.275 263.174V256.359M203.886 263.174V256.359M197.503 263.174V256.359M191.114 263.174V256.359M184.726 263.174V256.359M178.336 263.174V256.359M171.946 263.174V256.359M165.564 263.174V256.359M159.175 263.174V256.359M152.786 263.174V256.359M146.396 263.174V256.359M275.835 171.129H119.166M200.908 100.032H194.092M200.908 107.124H194.092M200.908 114.225H194.092M200.908 121.319H194.092M200.908 128.42H194.092M200.908 135.514H194.092M200.908 142.614H194.092M200.908 149.708H194.092M200.908 156.809H194.092M200.908 163.903H194.092M200.908 178.098H194.092M200.908 185.198H194.092M200.908 192.292H194.092M200.908 199.392H194.092M200.908 206.493H194.092M200.908 213.587H194.092M200.908 220.688H194.092M200.908 227.781H194.092M200.908 234.882H194.092M200.908 241.977H194.092M197.503 249.335V92.6723M268.476 174.408V167.592M261.376 174.408V167.592M254.282 174.408V167.592M247.181 174.408V167.592M240.087 174.408V167.592M232.986 174.408V167.592M225.892 174.408V167.592M218.792 174.408V167.592M211.699 174.408V167.592M204.597 174.408V167.592M190.403 174.408V167.592M183.309 174.408V167.592M176.209 174.408V167.592M169.114 174.408V167.592M162.013 174.408V167.592M154.92 174.408V167.592M147.82 174.408V167.592M140.718 174.408V167.592M133.624 174.408V167.592M126.524 174.408V167.592" stroke="#151515" stroke-miterlimit="10"/>
</svg>
