<?xml version="1.0" encoding="UTF-8"?>
<svg width="454" height="454" viewBox="0 0 454 454" fill="none" xmlns="http://www.w3.org/2000/svg" role="img" aria-labelledby="title desc">
  <title id="title">SDLC security workflow</title>
  <desc id="desc">A software delivery pipeline from code to deploy connected with IDE, Git, CI, containers and VMs integrations.</desc>
  <rect width="454" height="454" rx="8" fill="#F7F7F9"/>
  <g font-family="Inter, Arial, sans-serif" font-weight="600" fill="#0B0F1F">
    <path d="M76 182h68l27 44-27 44H76c-24 0-44-20-44-44s20-44 44-44Z" fill="url(#fadeWhite)"/>
    <path d="M144 182h72l27 44-27 44h-72l27-44-27-44Z" fill="#F1EEFF"/>
    <path d="M216 182h72l27 44-27 44h-72l27-44-27-44Z" fill="#E8E2FF"/>
    <path d="M288 182h72l27 44-27 44h-72l27-44-27-44Z" fill="#DDD5FF"/>
    <path d="M360 182h40c19.9 0 36 16.1 36 36v16c0 19.9-16.1 36-36 36h-40l27-44-27-44Z" fill="#D0C5FF"/>
    <path d="M144 182l27 44-27 44" stroke="white" stroke-width="2.4"/>
    <path d="M216 182l27 44-27 44" stroke="white" stroke-width="2.4"/>
    <path d="M288 182l27 44-27 44" stroke="white" stroke-width="2.4"/>
    <path d="M360 182l27 44-27 44" stroke="white" stroke-width="2.4"/>
    <text x="60" y="234" font-size="18">Code</text>
    <text x="156" y="234" font-size="18">Build</text>
    <text x="231" y="234" font-size="18">Test</text>
    <text x="310" y="234" font-size="18">Release</text>
    <text x="389" y="234" font-size="18" text-anchor="middle">Deploy</text>
  </g>

  <g stroke="#A58BFF" stroke-width="1.2" fill="none">
    <path d="M81 182v-35c0-17 13-30 30-30h95"/>
    <path d="M206 270v56"/>
    <path d="M279 270v99"/>
    <path d="M349 270v40"/>
    <path d="M400 182v-63c0-14-11-25-25-25h-93"/>
    <path d="M81 270v21c0 14 11 25 25 25h45"/>
  </g>

  <g filter="url(#softShadow)">
    <rect x="152" y="98" width="60" height="28" rx="14" fill="white"/>
    <text x="182" y="118" text-anchor="middle" font-family="Inter, Arial, sans-serif" font-size="17" font-weight="600" fill="#0B0F1F">Git</text>
  </g>
  <g filter="url(#softShadow)">
    <rect x="318" y="75" width="70" height="28" rx="14" fill="white"/>
    <text x="353" y="95" text-anchor="middle" font-family="Inter, Arial, sans-serif" font-size="17" font-weight="600" fill="#0B0F1F">VMs</text>
  </g>
  <g filter="url(#softShadow)">
    <rect x="110" y="295" width="66" height="28" rx="14" fill="white"/>
    <text x="143" y="315" text-anchor="middle" font-family="Inter, Arial, sans-serif" font-size="17" font-weight="600" fill="#0B0F1F">IDE</text>
  </g>
  <g filter="url(#softShadow)">
    <rect x="202" y="352" width="56" height="28" rx="14" fill="white"/>
    <text x="230" y="372" text-anchor="middle" font-family="Inter, Arial, sans-serif" font-size="17" font-weight="600" fill="#0B0F1F">CI</text>
  </g>
  <g filter="url(#softShadow)">
    <rect x="306" y="309" width="116" height="28" rx="14" fill="white"/>
    <text x="364" y="329" text-anchor="middle" font-family="Inter, Arial, sans-serif" font-size="17" font-weight="600" fill="#0B0F1F">Containers</text>
  </g>

  <g>
    <g transform="translate(127 63)">
      <use href="#tile"/><text x="16" y="21" text-anchor="middle" font-family="Arial" font-size="15" font-weight="700" fill="#242833">GH</text>
    </g>
    <g transform="translate(157 63)"><use href="#tile"/><path d="M9 10h14v12H9z" fill="#202124"/><path d="M11 12h10v3H11z" fill="#0B0F1F"/></g>
    <g transform="translate(187 63)"><use href="#tile"/><path d="M8 21l8 4 8-4-2-12-4 6-2-7-2 7-4-6-2 12Z" fill="#FC6D26"/></g>
    <g transform="translate(217 63)"><use href="#tile"/><path d="M10 11l12-5v20l-12-5 5-5-5-5Z" fill="#6B7280"/></g>
  </g>

  <g>
    <g transform="translate(300 40)"><use href="#tile"/><text x="16" y="21" text-anchor="middle" font-family="Arial" font-size="13" font-weight="700" fill="#777">aws</text><path d="M8 22c5 4 12 4 17 0" stroke="#FF9900" stroke-width="1.5"/></g>
    <g transform="translate(330 40)"><use href="#tile"/><path d="M16 7l9 19h-6l-2-5h-6l-2 5H4l9-19h3Z" fill="#0078D4"/></g>
    <g transform="translate(360 40)"><use href="#tile"/><path d="M8 20a8 8 0 0 1 14-7l-4 3a3 3 0 0 0-5 3H8Z" fill="#4285F4"/><path d="M13 11a8 8 0 0 1 12 6h-5a3 3 0 0 0-4-2l-3-4Z" fill="#FBBC04"/><path d="M10 23a8 8 0 0 0 14-2h-6a3 3 0 0 1-5-1l-3 3Z" fill="#34A853"/><path d="M8 20a8 8 0 0 1 5-9l3 4a3 3 0 0 0-3 5l-5 0Z" fill="#EA4335"/></g>
    <g transform="translate(390 40)"><use href="#tile"/><path d="M10 22c-3-4-2-10 3-13s11-1 13 4c2 6-2 11-7 12v-5c2-1 3-3 2-5-1-3-4-4-7-2-2 1-3 4-2 6h5v5h-7Z" fill="#1A73E8"/></g>
  </g>

  <g>
    <g transform="translate(92 333)"><use href="#tile"/><path d="M8 17l10-8v14L8 17Z" fill="#29A7E9"/><path d="M18 9l6 3v10l-6 3V9Z" fill="#1476C9"/></g>
    <g transform="translate(122 333)"><use href="#tile"/><rect x="8" y="8" width="16" height="16" rx="3" fill="#111827"/><text x="16" y="21" text-anchor="middle" font-family="Arial" font-size="9" font-weight="700" fill="#fff">IJ</text></g>
    <g transform="translate(152 333)"><use href="#tile"/><path d="M8 10l8-4 8 4v12l-8 4-8-4V10Z" fill="#C7C7C7"/><path d="M16 6v20" stroke="#6B7280"/></g>
    <g transform="translate(182 333)"><use href="#tile"/><path d="M9 22c4-10 8-14 15-16-4 5-5 11-1 18-5-1-9-1-14-2Z" fill="#171E49"/></g>
  </g>

  <g>
    <g transform="translate(184 389)"><use href="#tile"/><circle cx="16" cy="16" r="9" fill="#2B2D6E"/><circle cx="16" cy="16" r="4" fill="#F7F7F9"/></g>
    <g transform="translate(214 389)"><use href="#tile"/><circle cx="16" cy="14" r="6" fill="#D6D6D6"/><path d="M10 24c4-5 8-5 12 0" stroke="#D22" stroke-width="3"/><text x="16" y="19" text-anchor="middle" font-family="Arial" font-size="7" font-weight="700" fill="#111">J</text></g>
    <g transform="translate(244 389)"><use href="#tile"/><circle cx="11" cy="10" r="3" fill="none" stroke="#555"/><circle cx="21" cy="16" r="3" fill="none" stroke="#555"/><circle cx="11" cy="22" r="3" fill="none" stroke="#555"/><path d="M13 11l6 4M13 21l6-4" stroke="#555"/></g>
    <g transform="translate(274 389)"><use href="#tile"/><path d="M8 21l8 4 8-4-2-12-4 6-2-7-2 7-4-6-2 12Z" fill="#FC6D26"/></g>
    <g transform="translate(304 389)"><use href="#tile"/><path d="M10 10h13v13H10z" fill="#89A8C8"/><path d="M13 13h7v3h-7z" fill="#fff"/></g>
  </g>

  <g>
    <g transform="translate(292 343)"><use href="#tile"/><path d="M8 20h16l-2 4H10l-2-4Z" fill="#2496ED"/><path d="M10 12h4v4h-4zm5 0h4v4h-4zm5 0h4v4h-4zm-5-5h4v4h-4z" fill="#2496ED"/></g>
    <g transform="translate(322 343)"><use href="#tile"/><path d="M16 7v15M11 12h10M10 22h12" stroke="#111827" stroke-width="2"/><path d="M9 20h14v5H9z" fill="#111827"/></g>
    <g transform="translate(352 343)"><use href="#tile"/><path d="M10 22c-3-4-2-10 3-13s11-1 13 4c2 6-2 11-7 12v-5c2-1 3-3 2-5-1-3-4-4-7-2-2 1-3 4-2 6h5v5h-7Z" fill="#1A73E8"/></g>
    <g transform="translate(382 343)"><use href="#tile"/><text x="16" y="15" text-anchor="middle" font-family="Arial" font-size="8" font-weight="700" fill="#555">JFrog</text><path d="M7 20c4 3 14 3 18 0" stroke="#777"/></g>
    <g transform="translate(412 343)"><use href="#tile"/><text x="16" y="21" text-anchor="middle" font-family="Arial" font-size="13" font-weight="700" fill="#222">+10</text></g>
  </g>

  <defs>
    <linearGradient id="fadeWhite" x1="32" y1="226" x2="171" y2="226" gradientUnits="userSpaceOnUse">
      <stop stop-color="white"/>
      <stop offset="1" stop-color="#F3F1FF"/>
    </linearGradient>
    <filter id="softShadow" x="-20%" y="-80%" width="140%" height="260%" color-interpolation-filters="sRGB">
      <feDropShadow dx="0" dy="7" stdDeviation="5" flood-color="#111827" flood-opacity="0.12"/>
    </filter>
    <symbol id="tile" viewBox="0 0 32 32">
      <rect x="0" y="0" width="32" height="32" rx="6" fill="#D7D7DE"/>
    </symbol>
  </defs>
</svg>