<svg xmlns="http://www.w3.org/2000/svg" viewBox="0 0 1920 1240" role="img" aria-label="SecOps dashboard placeholder">
  <rect width="1920" height="1240" fill="#ffffff"/>
  <text x="32" y="64" fill="#151515" font-family="Inter, Arial, sans-serif" font-size="40" font-weight="500">Dashboards</text>
  <g font-family="Inter, Arial, sans-serif" font-size="23">
    <text x="44" y="151" fill="#151515" font-weight="500">SecOps</text>
    <text x="175" y="151" fill="#3c3c3c">Data</text>
    <path d="M31 176h106" stroke="#151515" stroke-width="3"/>
    <path d="M31 177h1858" stroke="#d4d4d4"/>
  </g>
  <g transform="translate(1568 48)">
    <rect width="176" height="55" rx="5" fill="#ffffff" stroke="#b8b8b8"/>
    <path d="M29 18h22M34 27h12M39 36h2" stroke="#151515" stroke-width="2.5" stroke-linecap="round"/>
    <text x="60" y="35" fill="#3c3c3c" font-family="Inter, Arial, sans-serif" font-size="23">Accounts</text>
  </g>
  <g transform="translate(1762 48)">
    <rect width="105" height="55" rx="5" fill="#151515"/>
    <text x="18" y="35" fill="#ffffff" font-family="Inter, Arial, sans-serif" font-size="23">Export</text>
  </g>

  <g transform="translate(32 252)">
    <rect width="583" height="438" rx="10" fill="#ffffff" stroke="#d6d6d6"/>
    <text x="25" y="39" fill="#151515" font-family="Inter, Arial, sans-serif" font-size="18">Sensitive Records at High Risk</text>
    <path d="M0 64h583" stroke="#dedede"/>
    <circle cx="143" cy="265" r="105" fill="none" stroke="#f4e4eb" stroke-width="14"/>
    <path d="M143 160a105 105 0 0 1 105 105" fill="none" stroke="#a8073d" stroke-width="14" stroke-linecap="round"/>
    <text x="285" y="238" fill="#a8073d" font-family="Inter, Arial, sans-serif" font-size="31">81M</text>
    <path d="M390 215v32" stroke="#d4d4d4"/>
    <text x="405" y="238" fill="#a8073d" font-family="Inter, Arial, sans-serif" font-size="31">22.6%</text>
    <text x="285" y="270" fill="#3c3c3c" font-family="Inter, Arial, sans-serif" font-size="12">81M / 362M</text>
    <text x="285" y="288" fill="#3c3c3c" font-family="Inter, Arial, sans-serif" font-size="12">sensitive records at high risk</text>
    <rect x="286" y="306" width="10" height="10" rx="2" fill="#a8073d"/>
    <text x="306" y="315" fill="#6f6f6f" font-family="Inter, Arial, sans-serif" font-size="14">High Risk 22.6%</text>
  </g>

  <g transform="translate(661 252)">
    <rect width="1227" height="644" rx="10" fill="#ffffff" stroke="#d6d6d6"/>
    <text x="25" y="39" fill="#151515" font-family="Inter, Arial, sans-serif" font-size="18">% Sensitive Records at High Risk Over Time</text>
    <path d="M0 64h1227" stroke="#dedede"/>
    <g stroke="#dcdcdc" stroke-dasharray="6 8">
      <path d="M126 128h1070"/>
      <path d="M126 204h1070"/>
      <path d="M126 281h1070"/>
      <path d="M126 357h1070"/>
      <path d="M126 433h1070"/>
    </g>
    <g fill="#7f7f7f" font-family="Inter, Arial, sans-serif" font-size="16">
      <text x="39" y="134">20.0%</text>
      <text x="39" y="211">15.0%</text>
      <text x="39" y="287">10.0%</text>
      <text x="49" y="364">5.0%</text>
      <text x="49" y="440">0.0%</text>
    </g>
    <path d="M126 161L210 227L296 239L381 276L466 261L551 329L636 336L721 362L806 313L891 375L976 408L1061 433" fill="none" stroke="#a8073d" stroke-width="3"/>
    <path d="M126 161L210 227L296 239L381 276L466 261L551 329L636 336L721 362L806 313L891 375L976 408L1061 433L1061 433L126 433Z" fill="url(#riskFade)"/>
    <g fill="#a8073d">
      <circle cx="210" cy="227" r="5"/><circle cx="296" cy="239" r="5"/><circle cx="381" cy="276" r="5"/><circle cx="466" cy="261" r="5"/><circle cx="551" cy="329" r="5"/><circle cx="636" cy="336" r="5"/><circle cx="721" cy="362" r="5"/><circle cx="806" cy="313" r="5"/><circle cx="891" cy="375" r="5"/><circle cx="976" cy="408" r="5"/><circle cx="1061" cy="433" r="5"/>
    </g>
    <text x="1045" y="416" fill="#a8073d" font-family="Inter, Arial, sans-serif" font-size="18">2.5%</text>
    <g fill="#7f7f7f" font-family="Inter, Arial, sans-serif" font-size="16">
      <text x="144" y="515">Apr 4</text><text x="229" y="515">Apr 8</text><text x="315" y="515">Apr 15</text><text x="400" y="515">Apr 22</text><text x="486" y="515">May 1</text><text x="572" y="515">May 8</text><text x="657" y="515">May 15</text><text x="742" y="515">May 22</text><text x="827" y="515">May 29</text><text x="913" y="515">Jun 6</text><text x="998" y="515">Jun 13</text><text x="1083" y="515">Jun 20</text>
    </g>
  </g>

  <g transform="translate(32 720)">
    <rect width="593" height="520" rx="10" fill="#ffffff" stroke="#d6d6d6"/>
    <text x="25" y="39" fill="#151515" font-family="Inter, Arial, sans-serif" font-size="18">Sensitive Records at High Risk</text>
    <path d="M0 64h593" stroke="#dedede"/>
    <rect x="18" y="92" width="185" height="48" rx="6" fill="#ffffff" stroke="#d6d6d6"/>
    <rect x="212" y="92" width="190" height="48" rx="6" fill="#ffffff" stroke="#d6d6d6"/>
    <text x="48" y="124" fill="#3c3c3c" font-family="Inter, Arial, sans-serif" font-size="20">Trust Level</text>
    <text x="242" y="124" fill="#3c3c3c" font-family="Inter, Arial, sans-serif" font-size="20">User Status</text>
    <text x="18" y="199" fill="#6f6f6f" font-family="Inter, Arial, sans-serif" font-size="17">IDENTITY</text>
    <g transform="translate(18 232)" font-family="Inter, Arial, sans-serif" font-size="21" fill="#151515">
      <rect width="58" height="58" rx="6" fill="#f4f8ff" stroke="#dce9ff"/>
      <rect x="13" y="16" width="32" height="25" rx="2" fill="none" stroke="#0066ff" stroke-width="2"/>
      <text x="82" y="20">ChatGPT</text><path d="M82 48h338" stroke="#9fc4ff" stroke-width="8" stroke-linecap="round"/><text x="518" y="52" fill="#0066ff">806</text>
    </g>
    <g transform="translate(18 313)" font-family="Inter, Arial, sans-serif" font-size="21" fill="#151515">
      <rect width="58" height="58" rx="6" fill="#f4f8ff" stroke="#dce9ff"/>
      <circle cx="29" cy="20" r="8" fill="none" stroke="#0066ff" stroke-width="2"/><path d="M16 48c0-13 26-13 26 0" fill="none" stroke="#0066ff" stroke-width="2"/>
      <text x="82" y="20">travis@stark.com</text><path d="M82 48h298" stroke="#9fc4ff" stroke-width="8" stroke-linecap="round"/><text x="518" y="52" fill="#0066ff">670</text>
    </g>
    <g transform="translate(18 394)" font-family="Inter, Arial, sans-serif" font-size="21" fill="#151515">
      <rect width="58" height="58" rx="6" fill="#f4f8ff" stroke="#dce9ff"/>
      <rect x="19" y="18" width="22" height="22" rx="2" fill="none" stroke="#0066ff" stroke-width="2"/>
      <text x="82" y="20">AmazonBedrockExecutionRole...</text><path d="M82 48h250" stroke="#9fc4ff" stroke-width="8" stroke-linecap="round"/><text x="518" y="52" fill="#0066ff">400</text>
    </g>
  </g>

  <g transform="translate(661 930)">
    <rect width="1227" height="196" rx="10" fill="#ffffff" stroke="#d6d6d6"/>
    <text x="36" y="72" fill="#6f6f6f" font-family="Inter, Arial, sans-serif" font-size="18">Open Issues</text>
    <text x="36" y="140" fill="#3c3c3c" font-family="Inter, Arial, sans-serif" font-size="56">2.7K</text>
    <g font-family="Inter, Arial, sans-serif" font-size="18" fill="#151515">
      <rect x="263" y="67" width="6" height="26" fill="#a8073d"/><text x="277" y="87">1622 Critical</text>
      <rect x="430" y="67" width="6" height="26" fill="#ff6b00"/><text x="444" y="87">789 High</text>
      <rect x="562" y="67" width="6" height="26" fill="#ffb13b"/><text x="576" y="87">34 Medium</text>
      <rect x="716" y="67" width="6" height="26" fill="#0066ff"/><text x="730" y="87">271 Low</text>
    </g>
    <path d="M265 127h524" stroke="#a8073d" stroke-width="12" stroke-linecap="round"/>
    <path d="M800 127h190" stroke="#ff6b00" stroke-width="12"/>
    <path d="M1000 127h38" stroke="#ffb13b" stroke-width="12"/>
    <path d="M1048 127h166" stroke="#0066ff" stroke-width="12" stroke-linecap="round"/>
    <rect x="1110" y="65" width="90" height="30" rx="4" fill="#b7eee7"/>
    <text x="1120" y="87" fill="#151515" font-family="Inter, Arial, sans-serif" font-size="18">192 New</text>
  </g>

  <defs>
    <linearGradient id="riskFade" x1="0" y1="0" x2="0" y2="1">
      <stop offset="0" stop-color="#a8073d" stop-opacity="0.18"/>
      <stop offset="1" stop-color="#a8073d" stop-opacity="0"/>
    </linearGradient>
  </defs>
</svg>
