<?xml version="1.0" encoding="UTF-8"?>
<svg id="_图层_2" data-name="图层 2" xmlns="http://www.w3.org/2000/svg" viewBox="0 0 266.5 66.87">
  <defs>
    <style>
      .cls-1 {
        fill: #ffffff;
      }

      .cls-2 {
        fill: #d71618;
        fill-rule: evenodd;
      }
    </style>
  </defs>
  <g id="_图层_1-2" data-name="图层 1">
    <g>
      <g>
        <path class="cls-2" d="M4.02,3.27H57.21v28.84c0,6.63-2.52,13.53-7.72,19.56-4.5,5.22-11.02,9.78-19.68,12.9l-1.76,.63-2.57-1.51h0c.92,.55,2.07,1.23,0,.01C15.97,58.16,.93,49.37,.02,32.74l-.02-.2V3.27H4.02ZM49.18,11.31H8.04v21.23h0c.78,11.81,12.77,19.14,20.82,23.85,6.39-2.57,11.22-6.05,14.58-9.95,3.87-4.49,5.74-9.54,5.74-14.32V11.31h0ZM28.84,56.39h0c-.49-.29-.73-.43,0,0h0Zm-3.35,7.32c-1.33-.78-.74-.43,0,0h0Z"/>
        <path class="cls-2" d="M36.44,24.21h-15.65v8.46l-.02,.12s-.2,3.29,7.84,8.93c1.86-1.16,4.45-2.96,6.08-5.18h-5.66v-7.87h14.96l-.08,4.01c-.18,9.1-9.07,14.41-12.65,16.55-.38,.23-.69,.42-.72,.43l-2.05,1.31-2.04-1.31c-12.83-8.25-13.37-15.95-13.38-17h-.01V16.34h23.38v7.87Z"/>
      </g>
      <g>
        <path class="cls-1" d="M70.61,34.57V8.35h17.48V0h7.57V8.35h17.48v26.02h-7.57v-2.52h-9.9v14.95h-7.57v-14.95h-9.9v2.72h-7.57Zm7.57-19.23v9.52h9.9V15.34h-9.9Zm27.38,0h-9.9v9.52h9.9V15.34Z"/>
        <path class="cls-1" d="M120.04,9.13c-.26-2.72-.58-4.86-.97-6.41,6.73-.26,12.82-.71,18.26-1.36l1.17,6.21c-.52,0-1.23,.07-2.14,.19-1.81,.13-3.24,.26-4.27,.39v5.44h5.63v6.6h-5.63v5.05l1.75-1.94c2.07,1.43,4.14,2.98,6.21,4.66l-2.33,2.52,15.34-1.36V.39h6.99V28.55l5.44-.58,.19,6.8-5.63,.58v11.07h-6.99v-10.49l-15.54,1.36-.58-5.83-1.17,1.36c-.65-.65-1.88-1.75-3.69-3.3v16.9h-6.8v-15.92c-1.3,3.11-2.91,6.02-4.86,8.74l-1.94-7.96c2.85-3.75,4.86-7.44,6.02-11.07h-5.63v-6.6h6.41v-4.86c-.52,.13-1.43,.19-2.72,.19-1.04,.13-1.88,.19-2.52,.19Zm26.61,18.64c-2.72-2.59-5.63-4.92-8.74-6.99l4.27-4.66c2.59,1.81,5.57,4.01,8.93,6.6l-4.47,5.05Zm1.94-12.04c-2.72-2.33-3.11-2.65-1.17-.97-1.94-1.68-4.47-3.82-7.57-6.41l4.08-4.47c3.11,2.33,6.15,4.66,9.13,6.99l-4.47,4.86Z"/>
        <path class="cls-1" d="M170.84,46.42V1.75h43.11V46.42h-7.19v-2.14h-28.94v2.14h-6.99Zm6.99-38.45v30.68h28.94V7.96h-28.94Zm1.17,9.71v-5.44h9.9v-3.5h6.8v3.5h9.9v5.44h-9.9v3.3h7.96v14.95h-22.72v-14.95h7.96v-3.3h-9.9Zm8.55,8.55v4.27h9.52v-4.27h-9.52Z"/>
        <path class="cls-1" d="M224.74,25.25c-.26-.26-.58-.65-.97-1.17-1.94-2.98-3.63-5.31-5.05-6.99l5.44-3.5c2.33,2.46,4.47,4.99,6.41,7.57l-5.83,4.08Zm.97,20.78l-6.21-1.75c1.29-5.57,2.52-11.2,3.69-16.9,1.68,.39,3.75,.91,6.21,1.55-.26,1.3-.65,3.24-1.17,5.83-.39,1.55-1.23,5.31-2.52,11.26Zm14.76-13.98V11.65h5.83l.78-3.69h-8.93v11.26c0,6.86-.32,11.98-.97,15.34-.52,3.63-1.81,7.77-3.88,12.43l-5.83-4.86c1.68-2.98,2.78-6.02,3.3-9.13,.52-3.11,.78-7.64,.78-13.59V8.16l-5.63,3.88c-1.81-2.59-3.88-5.24-6.21-7.96l5.63-3.5c2.2,2.33,4.27,4.79,6.21,7.38V2.14h34.37V7.96h-11.85l-.97,3.69h10.68v20.39h-8.55v3.69l4.47-2.91c1.42,1.81,3.23,4.15,5.44,6.99,.65,.65,1.1,1.1,1.36,1.36l-4.86,3.3c-1.55-2.33-3.69-5.18-6.41-8.55v5.05c.13,3.37-1.49,5.11-4.86,5.24h-5.63c-.13-.65-.39-1.81-.78-3.5-.13-.78-.26-1.36-.39-1.75l-3.3,4.08c-.65-.65-1.62-1.49-2.91-2.52-.65-.52-1.1-.91-1.36-1.17,2.46-2.46,4.72-5.31,6.8-8.55l4.86,2.72c-.26,.26-.58,.71-.97,1.36-.65,1.04-1.62,2.4-2.91,4.08h3.5c1.17,0,1.75-.65,1.75-1.94v-6.99h-8.55Zm6.02-15.15v2.72h11.07v-2.72h-11.07Zm0,6.99v2.91h11.07v-2.91h-11.07Z"/>
      </g>
      <g>
        <path class="cls-1" d="M75.75,54.76c-2.03,.04-3.09,.78-3.17,2.2-.04,1.08,1.06,1.86,3.3,2.33,3.54,.65,5.22,1.99,5.05,4.01-.22,2.24-1.81,3.43-4.79,3.56-3.19,.09-5.05-1.21-5.57-3.88l1.49-.52c.3,2.24,1.64,3.32,4.01,3.24,2.11-.04,3.21-.86,3.3-2.46,.22-1.21-.99-2.07-3.63-2.59-3.28-.65-4.83-1.88-4.66-3.69,.17-2.2,1.68-3.37,4.53-3.5,2.8,0,4.47,1.19,4.98,3.56l-1.55,.45c-.48-1.81-1.58-2.72-3.3-2.72Z"/>
        <path class="cls-1" d="M94.35,66.87c-3.93-.22-5.98-2.35-6.15-6.41,.17-4.4,2.29-6.71,6.34-6.93,3.84,.26,5.89,2.52,6.15,6.8-.17,4.19-2.29,6.37-6.34,6.54Zm.06-12.04c-2.85,.26-4.42,2.09-4.73,5.5,.17,3.32,1.7,5.11,4.6,5.37,3.02-.17,4.62-1.96,4.79-5.37-.26-3.41-1.81-5.24-4.66-5.5Z"/>
        <path class="cls-1" d="M118.51,53.73v7.57c.04,3.75-1.68,5.61-5.18,5.57-3.41,.04-5.09-1.81-5.05-5.57v-7.57h1.49v7.51c-.04,3.06,1.14,4.55,3.56,4.47,2.59,.09,3.84-1.4,3.75-4.47v-7.51h1.42Z"/>
        <path class="cls-1" d="M138.27,66.67h-2.01l-4.47-5.83h-3.43v5.83h-1.49v-12.95h6.02c2.76,.13,4.23,1.29,4.4,3.5,0,2.24-1.29,3.45-3.88,3.63l4.86,5.83Zm-9.9-11.65v4.53h4.21c2.11-.04,3.17-.84,3.17-2.4-.04-1.38-1.1-2.09-3.17-2.14h-4.21Z"/>
        <path class="cls-1" d="M154.66,62.21l1.68,.39c-.82,2.81-2.7,4.23-5.63,4.27-3.71-.22-5.68-2.35-5.89-6.41,.17-4.4,2.18-6.71,6.02-6.93,2.46,.09,4.21,1.34,5.24,3.75l-1.62,.39c-.78-1.86-2.03-2.8-3.75-2.85-2.63,.26-4.08,2.09-4.34,5.5,.17,3.32,1.6,5.11,4.27,5.37,2.11-.09,3.45-1.25,4.01-3.5Z"/>
        <path class="cls-1" d="M165.42,65.51h8.22v1.17h-9.71v-12.95h9.32v1.23h-7.83v4.4h7.38v1.29h-7.38v4.86Z"/>
        <path class="cls-1" d="M187.38,60.01h5.57v4.73c-1.08,1.42-2.94,2.14-5.57,2.14-4.06-.22-6.19-2.37-6.41-6.47,.17-4.4,2.22-6.69,6.15-6.86,2.89,.04,4.81,1.32,5.76,3.82l-1.62,.39c-.69-1.9-2.09-2.87-4.21-2.91-2.76,.26-4.27,2.09-4.53,5.5,.22,3.32,1.81,5.11,4.79,5.37,1.94,0,3.34-.52,4.21-1.55v-2.91h-4.14v-1.23Z"/>
        <path class="cls-1" d="M211.09,53.73v7.57c.04,3.75-1.68,5.61-5.18,5.57-3.41,.04-5.09-1.81-5.05-5.57v-7.57h1.49v7.51c-.04,3.06,1.14,4.55,3.56,4.47,2.59,.09,3.84-1.4,3.75-4.47v-7.51h1.42Z"/>
        <path class="cls-1" d="M228.65,66.67l-1.62-3.95h-5.89l-1.55,3.95h-1.55l5.24-12.95h1.55l5.37,12.95h-1.55Zm-6.99-5.18h4.86l-2.14-5.5c-.04-.22-.13-.52-.26-.91-.13,.39-.24,.69-.32,.91l-2.14,5.5Z"/>
        <path class="cls-1" d="M248.47,66.67h-2.01l-4.47-5.83h-3.43v5.83h-1.49v-12.95h6.02c2.76,.13,4.23,1.29,4.4,3.5,0,2.24-1.29,3.45-3.88,3.63l4.86,5.83Zm-9.9-11.65v4.53h4.21c2.11-.04,3.17-.84,3.17-2.4-.04-1.38-1.1-2.09-3.17-2.14h-4.21Z"/>
        <path class="cls-1" d="M259.94,66.67h-4.4v-12.95h4.53c4.01,.13,6.09,2.29,6.21,6.47,.09,4.4-2.03,6.56-6.34,6.47Zm.06-11.65h-3.04v10.55h2.98c3.28-.04,4.9-1.81,4.86-5.31-.13-3.37-1.73-5.11-4.79-5.24Z"/>
      </g>
    </g>
  </g>
</svg>