<?xml version="1.0" encoding="UTF-8"?>
<svg xmlns="http://www.w3.org/2000/svg" viewBox="0 0 266.5 66.87" role="img" aria-label="SourceGuard mark">
  <path fill="#d71618" fill-rule="evenodd" d="M4.02,3.27H57.21v28.84c0,6.63-2.52,13.53-7.72,19.56-4.5,5.22-11.02,9.78-19.68,12.9l-1.76,.63-2.57-1.51h0c.92,.55,2.07,1.23,0,.01C15.97,58.16,.93,49.37,.02,32.74l-.02-.2V3.27H4.02ZM49.18,11.31H8.04v21.23h0c.78,11.81,12.77,19.14,20.82,23.85,6.39-2.57,11.22-6.05,14.58-9.95,3.87-4.49,5.74-9.54,5.74-14.32V11.31h0ZM28.84,56.39h0c-.49-.29-.73-.43,0,0h0Zm-3.35,7.32c-1.33-.78-.74-.43,0,0h0Z"/>
  <path fill="#d71618" fill-rule="evenodd" d="M36.44,24.21h-15.65v8.46l-.02,.12s-.2,3.29,7.84,8.93c1.86-1.16,4.45-2.96,6.08-5.18h-5.66v-7.87h14.96l-.08,4.01c-.18,9.1-9.07,14.41-12.65,16.55-.38,.23-.69,.42-.72,.43l-2.05,1.31-2.04-1.31c-12.83-8.25-13.37-15.95-13.38-17h-.01V16.34h23.38v7.87Z"/>
</svg>
